<svg width="16" height="16" viewBox="0 0 16 16" fill="none" xmlns="http://www.w3.org/2000/svg">
<path d="M3.99984 14.6663C3.64622 14.6663 3.30708 14.5259 3.05703 14.2758C2.80698 14.0258 2.6665 13.6866 2.6665 13.333V2.66634C2.6665 2.31272 2.80698 1.97358 3.05703 1.72353C3.30708 1.47349 3.64622 1.33301 3.99984 1.33301H9.33317C9.54421 1.33267 9.75323 1.37408 9.94819 1.45486C10.1432 1.53563 10.3202 1.65418 10.4692 1.80368L12.8612 4.19568C13.0111 4.34468 13.13 4.52191 13.211 4.71712C13.292 4.91233 13.3335 5.12166 13.3332 5.33301V13.333C13.3332 13.6866 13.1927 14.0258 12.9426 14.2758C12.6926 14.5259 12.3535 14.6663 11.9998 14.6663H3.99984Z" stroke="black" stroke-width="1.33333" stroke-linecap="round" stroke-linejoin="round"/>
<path d="M9.3335 1.33301V4.66634C9.3335 4.84315 9.40373 5.01272 9.52876 5.13775C9.65378 5.26277 9.82335 5.33301 10.0002 5.33301H13.3335" stroke="black" stroke-width="1.33333" stroke-linecap="round" stroke-linejoin="round"/>
<path d="M8 8V12" stroke="black" stroke-width="1.33333" stroke-linecap="round" stroke-linejoin="round"/>
<path d="M10 10L8 8L6 10" stroke="black" stroke-width="1.33333" stroke-linecap="round" stroke-linejoin="round"/>
</svg>
