<svg width="16" height="16" viewBox="0 0 16 16" fill="none" xmlns="http://www.w3.org/2000/svg">
<path d="M8 12.667V14.667" stroke="black" stroke-width="1.33333" stroke-linecap="round" stroke-linejoin="round"/>
<path d="M12.6668 6.66699V8.00033C12.6668 9.238 12.1752 10.425 11.3 11.3002C10.4248 12.1753 9.23784 12.667 8.00016 12.667C6.76249 12.667 5.5755 12.1753 4.70033 11.3002C3.82516 10.425 3.3335 9.238 3.3335 8.00033V6.66699" stroke="black" stroke-width="1.33333" stroke-linecap="round" stroke-linejoin="round"/>
<path d="M10 3.33301C10 2.22844 9.10457 1.33301 8 1.33301C6.89543 1.33301 6 2.22844 6 3.33301V7.99967C6 9.10424 6.89543 9.99967 8 9.99967C9.10457 9.99967 10 9.10424 10 7.99967V3.33301Z" stroke="black" stroke-width="1.33333" stroke-linecap="round" stroke-linejoin="round"/>
</svg>
