<svg width="70" height="32" viewBox="0 0 70 32" fill="none" xmlns="http://www.w3.org/2000/svg">
<path d="M14.8452 22C14.9622 22.2027 15.1306 22.371 15.3332 22.488C15.5359 22.605 15.7658 22.6666 15.9999 22.6666C16.2339 22.6666 16.4638 22.605 16.6665 22.488C16.8692 22.371 17.0375 22.2027 17.1545 22" stroke="#7B7593" stroke-width="1.33333" stroke-linecap="round" stroke-linejoin="round"/>
<path d="M10.1747 18.217C10.0876 18.3125 10.0301 18.4312 10.0092 18.5587C9.98837 18.6862 10.005 18.817 10.0571 18.9353C10.1093 19.0535 10.1946 19.154 10.3028 19.2247C10.4111 19.2953 10.5375 19.3329 10.6667 19.333H21.3333C21.4625 19.3331 21.589 19.2956 21.6972 19.2251C21.8055 19.1546 21.891 19.0542 21.9433 18.936C21.9955 18.8179 22.0123 18.6871 21.9916 18.5595C21.9709 18.432 21.9136 18.3132 21.8267 18.2177C20.94 17.3037 20 16.3323 20 13.333C20 12.2721 19.5786 11.2547 18.8284 10.5046C18.0783 9.75444 17.0609 9.33301 16 9.33301C14.9391 9.33301 13.9217 9.75444 13.1716 10.5046C12.4214 11.2547 12 12.2721 12 13.333C12 16.3323 11.0593 17.3037 10.1747 18.217Z" stroke="#7B7593" stroke-width="1.33333" stroke-linecap="round" stroke-linejoin="round"/>
<path d="M54.1467 9.33301H53.8533C53.4997 9.33301 53.1606 9.47348 52.9105 9.72353C52.6605 9.97358 52.52 10.3127 52.52 10.6663V10.7863C52.5198 11.0202 52.458 11.2498 52.341 11.4522C52.224 11.6547 52.0558 11.8228 51.8533 11.9397L51.5667 12.1063C51.364 12.2234 51.1341 12.285 50.9 12.285C50.666 12.285 50.436 12.2234 50.2333 12.1063L50.1333 12.053C49.8274 11.8765 49.4639 11.8286 49.1227 11.9199C48.7814 12.0111 48.4904 12.234 48.3133 12.5397L48.1667 12.793C47.9902 13.099 47.9423 13.4625 48.0335 13.8037C48.1248 14.1449 48.3477 14.436 48.6533 14.613L48.7533 14.6797C48.9549 14.796 49.1224 14.9631 49.2394 15.1642C49.3563 15.3654 49.4186 15.5937 49.42 15.8263V16.1663C49.4209 16.4013 49.3598 16.6323 49.2427 16.836C49.1256 17.0397 48.9568 17.2089 48.7533 17.3263L48.6533 17.3863C48.3477 17.5634 48.1248 17.8545 48.0335 18.1957C47.9423 18.5369 47.9902 18.9004 48.1667 19.2063L48.3133 19.4597C48.4904 19.7653 48.7814 19.9882 49.1227 20.0795C49.4639 20.1707 49.8274 20.1228 50.1333 19.9463L50.2333 19.893C50.436 19.776 50.666 19.7144 50.9 19.7144C51.1341 19.7144 51.364 19.776 51.5667 19.893L51.8533 20.0597C52.0558 20.1766 52.224 20.3447 52.341 20.5471C52.458 20.7495 52.5198 20.9792 52.52 21.213V21.333C52.52 21.6866 52.6605 22.0258 52.9105 22.2758C53.1606 22.5259 53.4997 22.6663 53.8533 22.6663H54.1467C54.5003 22.6663 54.8394 22.5259 55.0895 22.2758C55.3395 22.0258 55.48 21.6866 55.48 21.333V21.213C55.4802 20.9792 55.542 20.7495 55.659 20.5471C55.776 20.3447 55.9442 20.1766 56.1467 20.0597L56.4333 19.893C56.636 19.776 56.866 19.7144 57.1 19.7144C57.3341 19.7144 57.564 19.776 57.7667 19.893L57.8667 19.9463C58.1726 20.1228 58.5361 20.1707 58.8773 20.0795C59.2186 19.9882 59.5096 19.7653 59.6867 19.4597L59.8333 19.1997C60.0098 18.8937 60.0577 18.5302 59.9665 18.189C59.8752 17.8478 59.6523 17.5567 59.3467 17.3797L59.2467 17.3263C59.0432 17.2089 58.8744 17.0397 58.7573 16.836C58.6402 16.6323 58.5791 16.4013 58.58 16.1663V15.833C58.5791 15.5981 58.6402 15.367 58.7573 15.1633C58.8744 14.9596 59.0432 14.7905 59.2467 14.673L59.3467 14.613C59.6523 14.436 59.8752 14.1449 59.9665 13.8037C60.0577 13.4625 60.0098 13.099 59.8333 12.793L59.6867 12.5397C59.5096 12.234 59.2186 12.0111 58.8773 11.9199C58.5361 11.8286 58.1726 11.8765 57.8667 12.053L57.7667 12.1063C57.564 12.2234 57.3341 12.285 57.1 12.285C56.866 12.285 56.636 12.2234 56.4333 12.1063L56.1467 11.9397C55.9442 11.8228 55.776 11.6547 55.659 11.4522C55.542 11.2498 55.4802 11.0202 55.48 10.7863V10.6663C55.48 10.3127 55.3395 9.97358 55.0895 9.72353C54.8394 9.47348 54.5003 9.33301 54.1467 9.33301Z" stroke="#7B7593" stroke-width="1.33333" stroke-linecap="round" stroke-linejoin="round"/>
<path d="M54 18C55.1046 18 56 17.1046 56 16C56 14.8954 55.1046 14 54 14C52.8954 14 52 14.8954 52 16C52 17.1046 52.8954 18 54 18Z" stroke="#7B7593" stroke-width="1.33333" stroke-linecap="round" stroke-linejoin="round"/>
</svg>
