<svg width="24" height="24" viewBox="0 0 24 24" fill="none" xmlns="http://www.w3.org/2000/svg">
<rect width="24" height="24" rx="8" fill="#DBEAFE"/>
<path d="M9 17C8.73478 17 8.48043 16.8946 8.29289 16.7071C8.10536 16.5196 8 16.2652 8 16V8C8 7.73479 8.10536 7.48043 8.29289 7.29289C8.48043 7.10536 8.73478 7 9 7H13C13.1583 6.99975 13.315 7.0308 13.4613 7.09139C13.6075 7.15197 13.7403 7.24088 13.852 7.353L15.646 9.147C15.7584 9.25875 15.8476 9.39167 15.9083 9.53808C15.9691 9.68449 16.0003 9.84149 16 10V16C16 16.2652 15.8946 16.5196 15.7071 16.7071C15.5196 16.8946 15.2652 17 15 17H9Z" stroke="#155DFC" stroke-linecap="round" stroke-linejoin="round"/>
<path d="M13 7V9.5C13 9.63261 13.0527 9.75979 13.1464 9.85355C13.2402 9.94732 13.3674 10 13.5 10H16" stroke="#155DFC" stroke-linecap="round" stroke-linejoin="round"/>
</svg>
